<svg id="Capa_1" enable-background="new 0 0 507.015 507.015" height="512" viewBox="0 0 507.015 507.015" width="512" xmlns="http://www.w3.org/2000/svg"><g><path d="m396.814 136.69h26.144c5.643 0 10.218-4.575 10.218-10.218v-4.013c0-5.643 4.575-10.218 10.218-10.218h4.013c5.643 0 10.218-4.575 10.218-10.218v-22.651c0-5.643-4.575-10.218-10.218-10.218h-50.592v67.536z" fill="#ffe177"/><path d="m145.656 463.932v40.311c0 2-2.061 3.343-3.897 2.533l-27.906-12.399c-.708-.318-1.528-.318-2.236 0l-2.718 1.2-22.563 9.948c-1.836.81-3.887-.533-3.887-2.533v-39.059h63.207z" fill="#fe646f"/><path d="m401.816 29.2v408.54c0 16.12-13.07 29.2-29.2 29.2h-311.74c-.09 0-.17 0-.26-.01-.43 0-.86-.01-1.29-.03-15.41-.81-27.65-13.56-27.65-29.16v-408.54c0-15.6 12.24-28.35 27.65-29.16.43-.02.86-.03 1.29-.03.09-.01.17-.01.26-.01h311.74c16.13 0 29.2 13.08 29.2 29.2z" fill="#f9f3f1"/><circle cx="384.999" cy="384.227" fill="#fe646f" r="90.34"/><path d="m336.306 198.273h-240.789c-8.161 0-14.777-6.616-14.777-14.777v-118.547c0-8.161 6.616-14.777 14.777-14.777h240.789c8.161 0 14.777 6.616 14.777 14.777v118.547c-.001 8.161-6.616 14.777-14.777 14.777z" fill="#fe646f"/><path d="m91.386 466.93h-30.77c-.43 0-.86-.01-1.29-.03-15.41-.81-27.65-13.56-27.65-29.16v-408.54c0-15.6 12.24-28.35 27.65-29.16.43-.02.86-.03 1.29-.03h30.77c-16.54 0-29.95 13.4-29.95 29.94v407.03c0 16.55 13.41 29.95 29.95 29.95z" fill="#e1d3ce"/><path d="m316.086 251.168h-229.743c-4.142 0-7.5-3.358-7.5-7.5s3.358-7.5 7.5-7.5h229.743c4.142 0 7.5 3.358 7.5 7.5s-3.358 7.5-7.5 7.5z" fill="#a59da7"/><path d="m281.625 297.874h-195.282c-4.142 0-7.5-3.358-7.5-7.5s3.358-7.5 7.5-7.5h195.282c4.142 0 7.5 3.358 7.5 7.5s-3.358 7.5-7.5 7.5z" fill="#a59da7"/><path d="m214.616 340.419h-128.273c-4.142 0-7.5-3.358-7.5-7.5s3.358-7.5 7.5-7.5h128.273c4.142 0 7.5 3.358 7.5 7.5s-3.357 7.5-7.5 7.5z" fill="#a59da7"/><g fill="#ffe177"><path d="m384.477 447.6c-4.142 0-7.5-3.358-7.5-7.5v-4.177c0-4.142 3.358-7.5 7.5-7.5s7.5 3.358 7.5 7.5v4.177c0 4.142-3.358 7.5-7.5 7.5z"/><path d="m385.521 415.225c-4.142 0-7.5-3.358-7.5-7.5v-79.372c0-4.142 3.358-7.5 7.5-7.5s7.5 3.358 7.5 7.5v79.372c0 4.142-3.358 7.5-7.5 7.5z"/><path d="m303.769 151.806-19.895-28.737 17.468-24.746c2.389-3.384 1.582-8.064-1.802-10.453s-8.063-1.582-10.453 1.802l-14.304 20.265-13.99-20.208c-2.357-3.406-7.029-4.255-10.436-1.897-3.406 2.358-4.255 7.03-1.897 10.436l17.113 24.719-19.462 27.57c-2.389 3.384-1.582 8.064 1.802 10.453 1.314.928 2.824 1.373 4.319 1.373 2.354 0 4.672-1.105 6.134-3.175l16.298-23.089 16.772 24.227c1.456 2.104 3.795 3.231 6.173 3.231 1.472 0 2.96-.433 4.262-1.334 3.407-2.359 4.256-7.031 1.898-10.437z"/><path d="m175.147 93.563c0-4.142-3.358-7.5-7.5-7.5h-33.427c-4.142 0-7.5 3.358-7.5 7.5s3.358 7.5 7.5 7.5h9.216l.026 52.193c.002 4.141 3.359 7.496 7.5 7.496h.004c4.142-.002 7.498-3.362 7.496-7.504l-.026-52.186h9.21c4.143.001 7.501-3.357 7.501-7.499z"/><path d="m209.039 89.513c-1.175-2.854-3.976-4.689-7.063-4.644-3.085.053-5.823 1.989-6.901 4.881l-22.682 60.883c-1.446 3.881.528 8.2 4.41 9.646.863.321 1.747.474 2.617.474 3.042 0 5.905-1.865 7.029-4.884l5.774-15.5h21.534l6.48 15.737c1.577 3.83 5.96 5.657 9.791 4.08 3.83-1.577 5.657-5.96 4.08-9.791zm-11.226 35.857 4.64-12.456 5.129 12.456z"/></g><path d="m400.379 473.249c-5.005.861-10.143 1.313-15.384 1.313-49.895 0-90.333-40.439-90.333-90.333s40.439-90.343 90.333-90.343c5.241 0 10.379.451 15.384 1.313-42.562 7.292-74.949 44.377-74.949 89.031s32.388 81.728 74.949 89.019z" fill="#fd4755"/></g></svg>