<svg id="Capa_1" enable-background="new 0 0 512 512" height="512" viewBox="0 0 512 512" width="512" xmlns="http://www.w3.org/2000/svg"><g><g><path d="m341.84 0v512h-330v-413.301l68.699-30 30-68.699z" fill="#f0f7ff"/></g><path d="m206.84 0h135v512h-135z" fill="#dfe7f4"/><path d="m431.84 360h-30c-16.569 0-30 13.431-30 30v51.211l30 30v40.789h30v-40.789l30-30v-51.211c0-16.569-13.432-30-30-30z" fill="#fee274"/><g><path d="m483.52 297.48c-32.358-21.563-51.68-57.671-51.68-96.563h30c0 28.843 14.326 55.605 38.32 71.602z" fill="#fabe2c"/></g><g id="Taxes_1_"><g><path d="m431.84 210h-30c-16.569 0-30-13.431-30-30v-45c0-24.814 20.186-45 45-45s45 20.186 45 45v45c0 16.569-13.432 30-30 30z" fill="#fee274"/></g><path d="m206.84 150c-8.276 0-15-6.724-15-15s6.724-15 15-15 15 6.724 15 15h30c0-19.53-12.578-36.024-30-42.237v-32.763h-30v32.763c-17.422 6.213-30 22.707-30 42.237 0 24.814 20.186 45 45 45 8.276 0 15 6.724 15 15s-6.724 15-15 15-15-6.724-15-15h-30c0 19.53 12.578 36.024 30 42.237v32.763h30v-32.763c17.422-6.213 30-22.707 30-42.237 0-24.814-20.186-45-45-45z" fill="#fee274"/><g><path d="m71.84 300h30v30h-30z" fill="#575f64"/></g><g><path d="m131.84 300h150v30h-150z" fill="#575f64"/></g><g><path d="m71.84 360h30v30h-30z" fill="#575f64"/></g><g><path d="m131.84 360h150v30h-150z" fill="#575f64"/></g><g><path d="m71.84 420h30v30h-30z" fill="#575f64"/></g><g><path d="m131.84 420h150v30h-150z" fill="#575f64"/></g></g><path d="m11.84 98.699h98.699v-98.699z" fill="#c7cfe1"/><path d="m416.84 512h15v-40.789l30-30v-51.211c0-16.569-13.431-30-30-30h-15z" fill="#fabe2c"/><path d="m431.84 210c16.569 0 30-13.433 30-30v-45c0-24.814-20.186-45-45-45v120z" fill="#fabe2c"/><g><path d="m461.84 390h-90v-210h90z" fill="#575f64"/></g><g fill="#474f54"><path d="m416.84 180h45v210h-45z"/><path d="m206.84 420h75v30h-75z"/><path d="m206.84 360h75v30h-75z"/><path d="m206.84 300h75v30h-75z"/></g><g fill="#fabe2c"><path d="m206.84 60v60c8.276 0 15 6.724 15 15h30c0-19.53-12.578-36.024-30-42.237v-32.763z"/><path d="m221.84 237.237c17.422-6.213 30-22.707 30-42.237 0-24.814-20.186-45-45-45v30c8.276 0 15 6.724 15 15s-6.724 15-15 15v60h15z"/></g></g></svg>